<svg width="300" height="300" viewBox="0 0 300 300" fill="none" xmlns="http://www.w3.org/2000/svg">
<path d="M257.143 0H42.8571C19.1853 0 0 19.1853 0 42.8571V257.143C0 280.815 19.1853 300 42.8571 300H257.143C280.815 300 300 280.815 300 257.143V42.8571C300 19.1853 280.815 0 257.143 0ZM85.7143 235.714C73.8817 235.714 64.2857 226.118 64.2857 214.286C64.2857 202.453 73.8817 192.857 85.7143 192.857C97.5469 192.857 107.143 202.453 107.143 214.286C107.143 226.118 97.5469 235.714 85.7143 235.714ZM85.7143 107.143C73.8817 107.143 64.2857 97.5469 64.2857 85.7143C64.2857 73.8817 73.8817 64.2857 85.7143 64.2857C97.5469 64.2857 107.143 73.8817 107.143 85.7143C107.143 97.5469 97.5469 107.143 85.7143 107.143ZM150 171.429C138.167 171.429 128.571 161.833 128.571 150C128.571 138.167 138.167 128.571 150 128.571C161.833 128.571 171.429 138.167 171.429 150C171.429 161.833 161.833 171.429 150 171.429ZM214.286 235.714C202.453 235.714 192.857 226.118 192.857 214.286C192.857 202.453 202.453 192.857 214.286 192.857C226.118 192.857 235.714 202.453 235.714 214.286C235.714 226.118 226.118 235.714 214.286 235.714ZM214.286 107.143C202.453 107.143 192.857 97.5469 192.857 85.7143C192.857 73.8817 202.453 64.2857 214.286 64.2857C226.118 64.2857 235.714 73.8817 235.714 85.7143C235.714 97.5469 226.118 107.143 214.286 107.143Z" fill="#F7F7F7"/>
</svg>
